<svg xmlns="http://www.w3.org/2000/svg" xmlns:xlink="http://www.w3.org/1999/xlink" width="500" zoomAndPan="magnify" viewBox="0 0 375 374.999991" height="500" preserveAspectRatio="xMidYMid meet" version="1.0"><defs><g/></defs><g fill="#000000" fill-opacity="1"><g transform="translate(12.966189, 252.71039)"><g><path d="M 273.203125 12.0625 C 287.546875 12.0625 301.507812 15.050781 315.09375 21.03125 C 328.675781 27.007812 340.46875 34.890625 350.46875 44.671875 L 349.484375 45.96875 C 339.054688 36.84375 327.644531 30.753906 315.25 27.703125 C 302.863281 24.660156 289.9375 23.140625 276.46875 23.140625 C 267.332031 23.140625 258.414062 23.570312 249.71875 24.4375 C 241.03125 25.3125 232.234375 26.40625 223.328125 27.71875 L 208 29.671875 C 199.082031 30.972656 190.222656 32.054688 181.421875 32.921875 C 172.617188 33.796875 163.765625 34.234375 154.859375 34.234375 C 140.296875 34.234375 126.164062 32.710938 112.46875 29.671875 C 98.78125 26.628906 86.066406 21.953125 74.328125 15.640625 C 62.597656 9.335938 52.054688 1.191406 42.703125 -8.796875 C 33.359375 -18.796875 25.644531 -30.753906 19.5625 -44.671875 C 16.082031 -52.921875 13.414062 -61.445312 11.5625 -70.25 C 9.71875 -79.050781 8.796875 -88.019531 8.796875 -97.15625 C 8.796875 -111.0625 11.296875 -123.882812 16.296875 -135.625 C 21.296875 -147.363281 28.195312 -157.523438 37 -166.109375 C 45.800781 -174.691406 56.125 -181.425781 67.96875 -186.3125 C 79.8125 -191.207031 92.691406 -193.65625 106.609375 -193.65625 C 107.691406 -193.65625 108.832031 -193.65625 110.03125 -193.65625 C 111.226562 -193.65625 112.367188 -193.546875 113.453125 -193.328125 L 118.34375 -193 L 119.96875 -193 L 123.5625 -192.671875 C 127.46875 -192.671875 131.101562 -193.160156 134.46875 -194.140625 C 137.84375 -195.117188 140.289062 -197.78125 141.8125 -202.125 L 149.3125 -162.03125 C 145.832031 -170.070312 140.070312 -176.914062 132.03125 -182.5625 C 123.988281 -188.21875 115.515625 -191.046875 106.609375 -191.046875 C 92.910156 -191.046875 81.332031 -188.382812 71.875 -183.0625 C 62.425781 -177.738281 54.710938 -170.726562 48.734375 -162.03125 C 42.765625 -153.332031 38.421875 -143.332031 35.703125 -132.03125 C 32.984375 -120.726562 31.625 -109.101562 31.625 -97.15625 C 31.625 -78.894531 34.175781 -61.941406 39.28125 -46.296875 C 44.394531 -30.648438 51.945312 -17.117188 61.9375 -5.703125 C 71.9375 5.703125 84.269531 14.664062 98.9375 21.1875 C 113.613281 27.707031 130.515625 30.96875 149.640625 30.96875 C 158.984375 30.96875 168.109375 30.207031 177.015625 28.6875 C 185.929688 27.164062 194.847656 25.316406 203.765625 23.140625 L 219.078125 19.890625 C 228.210938 17.710938 237.234375 15.863281 246.140625 14.34375 C 255.054688 12.820312 264.078125 12.0625 273.203125 12.0625 Z M 273.203125 12.0625 "/></g></g></g><g fill="#000000" fill-opacity="1"><g transform="translate(50.921152, 263.537406)"><g><path d="M 8.515625 -51.703125 C 6.003906 -61.085938 5.410156 -70.398438 6.734375 -79.640625 C 8.054688 -88.890625 10.960938 -97.410156 15.453125 -105.203125 C 19.941406 -112.992188 25.851562 -119.757812 33.1875 -125.5 C 40.519531 -131.25 48.875 -135.378906 58.25 -137.890625 C 64.988281 -139.742188 71.722656 -140.535156 78.453125 -140.265625 C 85.191406 -140.003906 91.664062 -138.882812 97.875 -136.90625 C 104.082031 -134.925781 109.925781 -132.117188 115.40625 -128.484375 C 120.882812 -124.847656 125.738281 -120.519531 129.96875 -115.5 L 125.40625 -98.078125 L 123.625 -98.078125 C 120.59375 -104.148438 116.828125 -109.925781 112.328125 -115.40625 C 107.835938 -120.882812 102.816406 -125.472656 97.265625 -129.171875 C 91.722656 -132.867188 85.679688 -135.441406 79.140625 -136.890625 C 72.609375 -138.347656 65.773438 -138.15625 58.640625 -136.3125 C 50.054688 -134.0625 42.988281 -130.03125 37.4375 -124.21875 C 31.894531 -118.40625 27.671875 -111.703125 24.765625 -104.109375 C 21.859375 -96.515625 20.238281 -88.425781 19.90625 -79.84375 C 19.582031 -71.257812 20.476562 -63.132812 22.59375 -55.46875 C 25.488281 -44.375 30.109375 -35.128906 36.453125 -27.734375 C 42.796875 -20.335938 49.894531 -14.722656 57.75 -10.890625 C 65.613281 -7.066406 73.800781 -4.988281 82.3125 -4.65625 C 90.832031 -4.320312 98.859375 -5.738281 106.390625 -8.90625 C 113.921875 -12.082031 120.492188 -16.9375 126.109375 -23.46875 C 131.722656 -30.007812 135.519531 -38.171875 137.5 -47.953125 L 139.078125 -47.546875 C 136.960938 -36.847656 132.703125 -27.898438 126.296875 -20.703125 C 119.898438 -13.503906 112.375 -8.15625 103.71875 -4.65625 C 95.0625 -1.15625 85.8125 0.523438 75.96875 0.390625 C 66.132812 0.265625 56.726562 -1.742188 47.75 -5.640625 C 38.769531 -9.535156 30.742188 -15.3125 23.671875 -22.96875 C 16.609375 -30.632812 11.554688 -40.210938 8.515625 -51.703125 Z M 8.515625 -51.703125 "/></g></g></g></svg>